<?xml version="1.0" encoding="ISO-8859-1"?>
    <!DOCTYPE svg PUBLIC "-//W3C//DTD SVG 20010904//EN" 
    "http://www.w3.org/TR/2001/REC-SVG-20010904/DTD/svg10.dtd">
    <!-- $sqlString2 -->
    <svg  width="240px" height="320px" viewBox="427581 -5260617 24000 32000" preserveAspectRatio="xMidYMid meet"> 
   <defs>
      <filter id="schatten">
			   <feGaussianBlur stdDeviation="3"  />
      </filter>
      <radialGradient id="radial" cx="50%" cy="90%" 
         r="60%" fx="60%" fy="80%">
            <stop offset="0%" style="stop-color:rgb(150,15,0);stop-opacity:1"/>
               <stop offset="1%" style="stop-color:rgb(255,128,128);stop-opacity:1"/>
                  <stop offset="50%" style="stop-color:rgb(255,0,0);stop-opacity:1"/>
      </radialGradient>
      <radialGradient id="radial1" cx="50%" cy="90%" r="60%" fx="60%" fy="80%">
	        <stop offset="0%" style="stop-color:rgb(0,150,15);stop-opacity:1"/>
	          <stop offset="1%" style="stop-color:rgb(128,255,128);stop-opacity:1"/>
	            <stop offset="50%" style="stop-color:rgb(0,255,0);stop-opacity:1"/>
      </radialGradient>
   </defs>
    <!--<rect x="427581" y="-5260617" width="24000" height="32000"
        transform="translate(7900, 7900)"
        style="filter:url(#schatten); fill='#999999' stroke='#999999' stroke-width='1'" />
    <rect x="427581" y="-5260617" width="24000" height="32000"
        fill="#ffffee" stroke="red" stroke-width="1" /> -->
	
    
      <g id="airports" transform="translate(0,0)" style="fill: rgb(256,0,0); fill-opacity: 0.8; stroke: rgb(55,0,0); stroke-width:3.0" >         
      <circle cx="439581" cy="-5244617" r = "710.8" /><text   x="439945.1" y="-5243660" stroke="none" fill="#000000" style="font-family:Arial;font-size:2000">Deer River Municipal Airport</text>      
     
      </g>
     
      <g id="ctybdpy2" transform="translate(0,0)" style="fill: rgb(256,256,0);  fill-opacity: 0.1; stroke: rgb(55,0,0); stroke-width:3.0" >    
      </g>
     
      <g id="lakespy2" transform="translate(0,0)" style="fill: rgb(0,0,256); fill-opacity: 0.8; stroke: rgb(55,0,0); stroke-width:3.0" >         
      <path id="lakespy2_87"  d="M450826.18 -5257606.99 l -33.19 22.63 l -135.06 44.37 l -28.0 2.25 l -42.68 -56.25 l -60.5 -53.88 l 5.38 -35.5 l 15.38 -15.13 l 51.06 -19.75 l 46.25 -60.5 l 43.25 -7.25 l 86.13 26.13 l 81.25 5.75 l 32.75 30.87 l -0.44 50.75 l -28.31 40.38 l -33.26 25.11 Z"/>      
          
      <path id="lakespy2_88"  d="M450527.42 -5257429.38 l 69.25 -73.11 l 25.37 -7.38 l 22.75 10.38 l 2.25 43.25 l -28.44 53.0 l -38.57 53.0 l -23.12 30.49 l -28.0 4.75 l -22.69 -15.38 l -17.5 -30.62 l 38.69 -68.38 Z"/>      
          
      <path id="lakespy2_90"  d="M451038.98 -5257251.86 l 17.13 73.75 l 29.93 61.25 l -2.81 25.24 l -101.69 14.38 l -53.31 -3.13 l -114.19 -18.88 l -71.31 22.25 l -35.69 17.63 l -35.43 -13.01 l 0.31 -38.12 l 36.0 -48.12 l 35.69 -12.38 l 121.88 3.63 l 25.69 -32.62 l -9.88 -33.12 l -83.49 -36.38 l -20.01 -38.37 l -22.12 -78.87 l -40.25 -48.63 l 15.56 -37.87 l 48.44 -17.38 l 38.06 2.88 l 25.13 30.75 l 17.24 63.62 l 35.44 10.51 l 38.25 -14.88 l 56.0 -12.12 l 20.31 10.37 l 19.37 99.26 l 9.75 48.37 Z"/>      
          
      <path id="lakespy2_92"  d="M451071.15 -5256873.24 l 28.13 -17.62 l 15.75 -58.25 l 15.38 -20.13 l 12.68 5.12 l 15.07 18.01 l -0.57 66.0 l 32.37 68.88 l -12.94 32.87 l -20.62 30.25 l -33.12 15.0 l -28.19 25.12 l -50.81 4.62 l -63.68 17.25 l -22.75 -12.87 l -9.81 -35.63 l 7.94 -38.12 l 63.82 -34.99 l 18.18 -48.0 l 33.19 -17.51 Z"/>      
          
      <path id="lakespy2_95"  d="M450479.32 -5256586.39 l -2.31 -30.49 l -14.69 -63.63 l 13.06 -35.5 l 58.63 -27.37 l -7.37 -25.49 l 3.19 -73.62 l -42.5 -74.0 l 2.69 -22.88 l 35.81 -27.62 l 68.57 5.63 l 83.69 16.01 l 32.93 10.5 l 101.19 46.63 l 30.12 40.88 l -2.94 40.62 l -59.07 70.63 l 12.38 38.12 l -10.5 38.12 l -25.63 27.62 l -46.32 68.25 l -25.75 37.87 l -18.44 75.87 l -18.07 30.37 l -73.81 14.5 l -78.63 -8.25 l -17.5 -33.25 l 13.25 -63.25 l -7.31 -38.12 l -4.69 -38.13 Z"/>      
          
      <path id="lakespy2_98"  d="M449857.11 -5256033.29 l -19.87 -48.38 l 10.37 -22.75 l 17.88 -7.5 l 55.62 28.49 l 24.94 51.01 l 12.25 50.87 l -15.38 12.63 l -20.31 -0.25 l -42.94 -28.25 l -22.56 -35.87 Z"/>      
          
      <path id="lakespy2_99"  d="M450508.74 -5255892.89 l 9.62 53.5 l -12.87 20.25 l -53.38 2.0 l -35.5 -7.88 l -72.56 -115.0 l 10.44 -32.88 l 15.37 -17.75 l 58.37 5.63 l 30.19 30.75 l 30.38 15.5 l 19.93 45.88 Z"/>      
          
      <path id="lakespy2_102"  d="M450137.01 -5254946.17 l -32.81 -20.5 l -20.06 -30.62 l 0.69 -78.87 l 30.87 -42.88 l 20.57 -32.87 l -25.37 -0.25 l -81.88 68.0 l -33.13 15.0 l -55.81 -13.25 l -27.68 -28.12 l 0.68 -76.25 l 71.63 -55.37 l 5.38 -35.5 l -17.51 -33.12 l -12.37 -35.75 l 22.94 -9.88 l 83.56 33.76 l 104.0 16.13 l 95.88 72.0 l 114.18 11.13 l 30.31 23.13 l 19.44 94.12 l -3.76 137.13 l 20.06 35.74 l 111.19 64.51 l 76.12 3.26 l 30.38 18.0 l 29.5 109.5 l -36.0 50.5 l -43.44 27.62 l -71.19 4.38 l -113.37 -105.14 l -17.56 -23.0 l -53.0 -36.0 l -45.25 -53.75 l -40.37 -33.38 l -101.44 -18.75 l -35.38 -20.64 Z"/>      
          
      <path id="lakespy2_113"  d="M435012.48 -5250394.67 l 76.06 16.01 l 20.12 15.5 l 4.87 22.88 l -28.37 40.38 l -30.69 20.0 l -40.62 -3.0 l -30.12 -30.75 l -20.13 -18.01 l 5.44 -37.99 l 43.44 -25.0 Z"/>      
          
      <path id="lakespy2_121"  d="M450025.85 -5245560.73 l 33.0 2.87 l 35.37 20.63 l 7.31 30.5 l 2.06 56.0 l -10.37 25.25 l -25.44 -0.25 l -86.12 -26.13 l -30.25 -20.63 l -9.81 -43.25 l 5.2 -10.12 l 45.87 -22.38 l 33.19 -12.5 Z"/>      
          
      <path id="lakespy2_122"  d="M449819.08 -5245161.24 l 53.25 8.13 l 7.31 33.12 l -0.32 38.12 l -30.81 40.38 l -38.06 -5.51 l -32.81 -25.62 l -12.12 -63.63 l 7.75 -12.62 l 45.81 -12.38 Z"/>      
          
      <path id="lakespy2_124"  d="M449963.27 -5245091.36 l 12.68 -2.38 l 48.07 20.76 l 4.68 50.75 l -2.81 25.37 l -35.88 35.24 l -33.0 -0.25 l -45.5 -23.25 l -7.37 -28.0 l 8.01 -43.12 l 51.13 -35.12 Z"/>      
          
      <path id="lakespy2_125"  d="M450356.21 -5245006.6 l 2.94 -43.13 l 23.0 -15.0 l 50.69 13.13 l 17.56 20.51 l 34.81 86.62 l -15.37 17.63 l -15.26 2.37 l -38.25 15.01 l -27.81 -18.13 l -32.31 -79.0 Z"/>      
          
      <path id="lakespy2_126"  d="M449548.62 -5244447.26 l -2.43 -17.88 l 15.37 -12.51 l 106.75 -6.74 l 25.37 2.87 l 45.44 33.38 l -20.69 43.0 l -50.87 4.62 l -73.88 24.74 l -38.01 -10.5 l -7.06 -61.0 Z"/>      
          
      <path id="lakespy2_128"  d="M440424.74 -5237938.67 l -79.58 88.1 l 0.02 -0.1 l 78.94 -89.67 l 0.63 1.67 Z"/>      
          
      <path id="lakespy2_135"  d="M447608.22 -5235289.65 l 25.44 -7.37 l 20.5 -20.13 l 40.69 -4.75 l 27.38 61.13 l 35.24 41.0 l -0.37 40.62 l -25.56 17.63 l -17.63 -20.51 l -25.37 2.25 l -99.63 62.63 l -66.13 7.12 l -48.06 -23.38 l -12.38 -35.62 l 25.63 -25.12 l 33.07 -7.38 l 51.5 -75.74 l 35.69 -12.38 Z"/>      
          
      <path id="lakespy2_141"  d="M444012.01 -5229635.35 l 53.75 -47.63 l 89.19 -37.12 l 101.5 13.39 l 53.43 -7.13 l 76.63 -52.37 l 38.25 -12.38 l 20.13 22.88 l 44.55 127.13 l 20.25 10.5 l 22.37 51.0 l -2.69 20.25 l -76.63 47.5 l -63.49 2.0 l -48.44 9.62 l -84.51 75.49 l -45.82 14.76 l -68.56 -0.63 l -32.88 -20.51 l -86.06 -31.25 l -35.32 -33.37 l -4.3 -76.24 l 28.63 -75.87 Z"/>      
          
      <path id="lakespy2_204"  d="M449723.87 -5259636.27 l 27.68 25.62 l 14.93 38.25 l -0.18 15.25 l -41.07 47.87 l -58.69 35.12 l -68.63 1.87 l -124.43 4.0 l -65.81 -15.88 l -20.25 -10.25 l 28.5 -73.5 l 12.69 2.75 l 61.32 -37.62 l 33.31 -30.12 l 119.63 -37.11 l 48.18 8.25 l 32.82 25.5 Z"/>      
          
      <path id="lakespy2_205"  d="M449463.91 -5259232.16 l -5.5 45.63 l -33.82 101.37 l -48.56 37.62 l -53.38 7.13 l -42.88 -30.75 l -14.74 -61.13 l 23.12 -30.24 l 68.81 -32.5 l 5.32 -25.37 l -32.88 -18.0 l -88.69 -16.01 l -20.06 -33.25 l 41.19 -68.25 l 76.32 -17.0 l 30.25 23.13 l 50.25 61.38 l 45.49 25.75 l -0.25 30.49 Z"/>      
          
      <path id="lakespy2_208"  d="M449843.04 -5259040.77 l 139.06 69.76 l 7.25 35.62 l -3.13 78.75 l -12.94 22.75 l -114.13 -11.25 l -38.12 2.25 l -30.12 -38.38 l -60.56 -41.12 l -60.69 -31.0 l -45.25 -48.75 l -29.69 -96.75 l 10.69 -53.25 l 28.63 -91.25 l 25.69 -32.75 l 48.31 -9.75 l 35.38 20.63 l 22.44 48.5 l 16.68 122.12 l 60.5 53.88 Z"/>      
          
      <path id="lakespy2_210"  d="M449440.4 -5258856.41 l 37.87 25.75 l 12.5 23.0 l -12.87 20.13 l -33.19 15.0 l -0.31 38.12 l 17.5 33.13 l -0.12 12.75 l -78.94 17.0 l -40.56 -8.0 l -20.0 -30.63 l -4.63 -50.87 l -14.69 -61.0 l 2.75 -25.37 l 25.56 -15.13 l 66.0 -4.38 l 43.12 10.51 Z"/>      
          
      <path id="lakespy2_216"  d="M450393.14 -5258332.38 l 8.25 -70.99 l 30.82 -40.25 l 35.69 -17.5 l 40.56 13.13 l 27.31 71.37 l 42.62 63.88 l -2.75 22.76 l -51.44 70.75 l -46.13 42.74 l -50.75 -0.5 l -29.88 -73.99 l -4.3 -81.38 Z"/>      
          
      <path id="lakespy2_218"  d="M451023.01 -5258029.61 l -0.45 48.38 l -10.62 50.75 l -25.56 20.12 l -35.69 12.38 l -27.69 -28.25 l 13.75 -119.37 l 31.06 -68.25 l 46.0 -27.49 l 7.37 27.99 l 1.81 83.75 Z"/>      
          
      <path id="lakespy2_219"  d="M450147.19 -5258090.64 l 86.5 -17.0 l 22.74 12.88 l -2.81 33.0 l -15.37 15.13 l 2.31 25.37 l 76.06 8.25 l 4.87 23.01 l -23.06 27.62 l -25.5 15.12 l -50.88 7.13 l -70.93 -23.51 l -88.37 -61.76 l -14.88 -40.75 l 2.69 -15.25 l 96.63 -9.25 Z"/>      
          
      <path id="lakespy2_220"  d="M450535.06 -5258003.25 l 15.07 20.38 l -0.57 63.38 l -26.0 58.38 l -45.94 24.86 l -68.62 4.63 l -30.25 -25.87 l 39.07 -106.25 l 5.57 -60.88 l 33.18 -14.88 l 40.56 5.38 l 37.94 30.87 Z"/>      
          
      <path id="lakespy2_846"  d="M446440.51 -5259190.41 l -57.56 -91.87 l -12.12 -76.37 l 13.19 -53.25 l 20.69 -32.75 l 43.51 -35.24 l 76.25 -4.38 l 70.87 31.13 l 90.5 104.88 l 39.81 99.5 l 1.81 78.75 l -28.5 65.75 l -18.13 35.37 l -109.5 29.49 l -55.88 2.12 l -42.49 -76.62 l -32.44 -76.5 Z"/>      
          
      <path id="lakespy2_850"  d="M445629.31 -5259134.06 l 76.0 23.51 l 35.44 15.63 l 40.25 56.12 l 7.31 33.13 l -77.25 121.24 l 7.31 38.12 l 45.5 36.0 l 17.5 30.62 l -23.06 22.63 l -56.0 14.88 l -38.13 2.25 l -30.12 -48.51 l 18.26 -58.37 l 3.0 -53.38 l -17.56 -33.12 l -38.06 -5.38 l -111.5 -34.12 l 0.63 -73.62 l 35.94 -42.88 l 104.57 -44.74 Z"/>      
          
      <path id="lakespy2_855"  d="M444298.4 -5258515.99 l -22.69 -17.76 l -30.38 -13.0 l -27.68 -23.13 l -7.31 -35.63 l 43.94 -86.37 l -19.87 -53.62 l 0.5 -58.51 l 25.56 -12.5 l 53.31 3.01 l 53.12 20.63 l 40.25 48.75 l 87.0 211.88 l 93.37 69.51 l 22.12 84.0 l -10.82 73.49 l -23.0 12.5 l -35.94 42.88 l -38.25 17.25 l -43.13 -2.88 l -48.06 -23.13 l -72.69 -107.13 l 13.0 -38.0 l -2.19 -40.62 l -50.19 -71.62 Z"/>      
          
      <path id="lakespy2_862"  d="M446324.72 -5258149.79 l 32.93 10.38 l 22.56 33.24 l -21.38 124.25 l -48.56 30.12 l -61.13 17.12 l -43.13 -0.37 l -24.94 -56.01 l -9.8 -35.74 l 0.19 -25.37 l 26.12 -81.0 l 38.25 -17.5 l 88.88 0.88 Z"/>      
          
      <path id="lakespy2_869"  d="M446091.7 -5257651.55 l 132.26 -14.0 l 152.25 16.51 l 93.82 18.63 l 19.93 40.88 l 7.12 55.88 l -15.38 20.25 l -55.81 -10.63 l -40.37 -33.37 l -25.32 -5.38 l -20.43 15.13 l -0.38 37.99 l 60.06 102.13 l -15.68 50.75 l -53.95 65.5 l -91.75 39.87 l -68.62 9.5 l -81.07 -28.62 l -96.44 -8.51 l -42.87 -30.87 l -32.37 -76.37 l -4.56 -56.0 l 25.81 -45.5 l 84.32 -62.75 l 69.44 -101.0 Z"/>      
          
      <path id="lakespy2_871"  d="M445608.68 -5257315.46 l 30.88 -50.49 l 61.06 -9.63 l 35.5 5.38 l 9.94 27.99 l -10.81 71.12 l -33.31 35.25 l -45.88 19.88 l -27.87 -10.38 l -19.87 -48.5 l 0.37 -40.63 Z"/>      
          
      <path id="lakespy2_873"  d="M446989.24 -5256599.53 l -32.69 -38.5 l -6.75 -101.62 l -58.13 -33.5 l -42.62 -58.88 l 15.69 -53.13 l 25.63 -27.74 l 66.18 -17.13 l 63.19 41.13 l 86.19 21.13 l 24.75 71.25 l 39.94 81.74 l 116.31 54.39 l 73.31 41.25 l 27.5 56.0 l -5.5 53.25 l -33.31 27.62 l -71.31 14.75 l -53.32 -3.0 l -121.5 -44.26 l -113.56 -84.75 Z"/>      
          
      <path id="lakespy2_874"  d="M447690.06 -5256849.99 l 4.49 66.0 l -28.19 22.63 l -50.88 12.25 l -35.5 -5.38 l -22.5 -43.37 l -4.63 -55.88 l -10.13 -10.13 l -7.37 -27.99 l 5.25 -17.76 l 33.06 -2.24 l 68.62 3.0 l 45.5 25.75 l 2.25 33.12 Z"/>      
          
      <path id="lakespy2_875"  d="M447285.68 -5256800.13 l -53.69 32.49 l -12.75 10.13 l -12.69 -5.25 l -20.19 -12.88 l -22.44 -51.0 l -2.31 -22.88 l 13.0 -30.37 l 38.19 -12.38 l 48.25 3.0 l 32.69 33.25 l -8.06 55.88 Z"/>      
          
      <path id="lakespy2_887"  d="M441812.67 -5255987.86 l 47.88 36.0 l 227.75 81.13 l 144.31 44.63 l 202.75 47.88 l 126.31 67.38 l 80.43 82.13 l 35.13 41.0 l 77.69 97.37 l 42.43 74.13 l 49.62 112.25 l 49.37 137.63 l -8.75 109.25 l -34.13 106.25 l -92.32 82.87 l -56.25 34.99 l -28.25 30.12 l -206.75 91.87 l -101.94 34.49 l -190.38 -14.76 l -190.0 -47.63 l -141.63 -62.51 l -58.06 -33.62 l -58.13 -28.5 l -125.87 -110.51 l -24.88 -46.0 l -115.74 -107.88 l -62.5 -97.25 l -19.87 -43.38 l -66.12 -231.87 l -1.88 -63.51 l 42.26 -154.5 l 41.38 -68.12 l 35.75 -22.51 l 25.51 -4.87 l 128.25 -123.12 l 89.5 -57.49 l 63.68 -17.01 l 73.44 23.64 Z"/>      
          
      <path id="lakespy2_890"  d="M445967.13 -5255625.7 l -27.75 -20.5 l -7.31 -43.25 l 43.56 -42.75 l 7.69 -7.62 l 78.82 -6.88 l 7.31 38.13 l -20.69 45.49 l -35.88 37.88 l -45.75 -0.51 Z"/>      
          
      <path id="lakespy2_892"  d="M448379.57 -5255258.85 l 9.88 27.99 l -6.38 147.25 l -13.06 40.5 l -71.76 72.99 l -91.94 52.62 l -30.5 2.25 l -230.81 -37.63 l -52.94 -41.12 l -137.25 6.37 l -12.62 -5.13 l -4.75 -40.75 l 30.63 -17.5 l 38.25 -14.88 l -2.12 -48.25 l -9.24 -99.12 l 44.63 -169.87 l 54.19 -93.5 l 43.62 -47.87 l 58.56 -19.75 l 119.57 -19.25 l 53.38 0.38 l 45.94 -27.5 l 49.0 -83.37 l 38.38 -30.12 l 66.07 0.63 l 14.93 33.12 l -27.26 208.0 l 3.69 157.51 l 19.93 46.0 Z"/>      
          
      <path id="lakespy2_894"  d="M446341.06 -5255401.31 l -27.56 -40.87 l -7.37 -25.5 l 11.26 -121.87 l 20.56 -32.75 l 33.07 -4.87 l 30.19 33.37 l 68.31 36.13 l 101.37 26.25 l 75.81 41.25 l 20.06 25.49 l 16.87 106.88 l -7.94 33.0 l -94.44 52.5 l -40.81 17.37 l -86.63 34.87 l -53.31 -5.5 l -32.75 -33.25 l -6.81 -86.5 l -19.87 -56.0 Z"/>      
          
      <path id="lakespy2_898"  d="M445028.48 -5255184.37 l -71.12 -0.63 l -88.93 1.88 l -22.63 -23.14 l -52.63 -81.62 l 5.51 -53.37 l 35.94 -37.88 l 43.44 -30.12 l 30.49 -4.87 l 38.06 5.38 l 68.25 33.62 l 27.5 51.0 l 1.74 94.0 l -15.63 45.75 Z"/>      
          
      <path id="lakespy2_900"  d="M447098.1 -5254548.91 l -28.0 7.37 l -88.81 -10.88 l -73.25 -43.87 l -75.44 -92.13 l -54.99 -94.5 l -2.13 -50.75 l 43.88 -73.24 l 33.57 -65.76 l 35.87 -35.24 l 86.63 -32.25 l 68.5 10.76 l 53.0 38.5 l 54.94 109.75 l 14.93 35.63 l 22.63 28.24 l 32.24 81.5 l 4.12 109.25 l -23.25 45.5 l -104.44 32.12 Z"/>      
          
      <path id="lakespy2_902"  d="M448929.87 -5254870.33 l 17.82 -10.0 l 35.68 -7.38 l 38.01 8.0 l 1.93 68.63 l -15.44 25.25 l -25.44 2.25 l -38.0 -15.51 l -27.69 -28.24 l 13.13 -43.0 Z"/>      
          
      <path id="lakespy2_909"  d="M448803.17 -5254335.47 l -20.51 22.62 l -66.06 4.5 l -2.81 25.37 l 82.62 135.38 l 65.69 46.25 l -10.37 22.76 l -56.07 19.87 l -18.0 20.13 l -28.63 83.62 l -12.75 2.38 l -35.38 -23.13 l -63.5 1.99 l -25.75 40.38 l -22.93 10.0 l -20.19 -15.51 l -4.69 -48.25 l 33.76 -80.99 l -32.25 -84.13 l -30.06 -48.5 l -68.57 -5.63 l -32.88 -18.13 l -9.87 -27.99 l 46.69 -111.38 l 15.82 -60.87 l -6.87 -86.38 l 2.62 -12.75 l 12.75 -4.88 l 42.75 48.63 l 25.44 0.25 l 13.7 -111.63 l 25.37 -2.37 l 58.06 43.75 l 38.12 -4.75 l 40.13 58.76 l 30.31 23.13 l 48.25 0.37 l 17.25 61.13 l -18.31 60.88 l -12.87 15.13 Z"/>      
          
      <path id="lakespy2_912"  d="M445594.46 -5252563.11 l -33.0 -2.75 l -50.25 -64.01 l -232.37 -146.88 l -68.0 -61.51 l -40.32 -41.0 l -17.5 -33.12 l -42.31 -97.0 l -93.06 -102.01 l -37.06 -121.99 l -69.94 -140.13 l -79.74 -173.5 l -1.43 -117.0 l 33.37 -37.87 l 91.56 -11.88 l 15.38 -20.25 l -2.31 -25.37 l -35.25 -35.87 l -55.56 -36.13 l -27.5 -45.75 l 18.26 -53.25 l 58.93 -63.0 l 117.07 -24.49 l 30.68 -20.0 l 38.13 -2.38 l 73.37 33.63 l 76.19 0.63 l -2.13 -48.25 l -34.87 -71.37 l -27.49 -45.88 l -2.25 -38.0 l 43.81 -68.25 l 56.19 -35.12 l 35.44 15.38 l 22.63 28.12 l 14.87 38.25 l 48.31 -7.37 l 28.19 -25.12 l 8.5 -101.5 l 21.0 -78.75 l 58.69 -32.62 l 129.75 -26.61 l 70.88 31.12 l 37.62 51.13 l -5.81 86.37 l -30.87 40.25 l -137.26 21.75 l -66.37 37.49 l -51.51 73.24 l -6.25 126.87 l 12.25 50.88 l -23.57 81.12 l 7.06 66.13 l -15.68 50.62 l 32.56 51.13 l 108.31 102.38 l 60.75 20.88 l 58.69 -27.24 l 125.13 -75.12 l 89.31 -49.99 l 28.44 -55.75 l 8.25 -68.51 l 15.44 -20.25 l 63.44 5.63 l 126.12 97.63 l 32.56 56.25 l -5.57 53.25 l -28.31 37.87 l -40.94 32.62 l -16.13 101.5 l -17.94 20.26 l -101.69 6.75 l -71.69 68.0 l -105.25 120.99 l -113.0 141.24 l -28.75 91.12 l 4.31 91.5 l 29.24 140.0 l -21.19 91.25 l -34.06 121.62 l -28.32 40.37 l -28.19 27.62 Z"/><path id="lakespy2_912"  d="M445185.12 -5253666.12 l -129.57 3.87 l -81.56 34.99 l -25.81 32.87 l 14.69 68.88 l 32.81 20.63 l 104.19 3.13 l 30.49 -4.75 l 23.01 -12.5 l 41.19 -65.75 l 45.94 -22.63 l 45.94 -24.99 l -12.38 -33.12 l -88.93 -0.63 Z"/>      
          
      <path id="lakespy2_913"  d="M447727.1 -5254444.26 l -0.01 5.13 l -41.06 45.37 l -15.26 4.87 l -22.81 -5.25 l -81.13 -23.63 l 0.25 -27.87 l 7.82 -22.88 l 127.25 -26.74 l 27.68 30.75 l -2.75 20.25 Z"/>      
          
      <path id="lakespy2_918"  d="M448039.55 -5253011.39 l -53.62 30.0 l -86.5 19.5 l -115.19 98.12 l -104.31 19.37 l -56.25 40.12 l -30.5 4.88 l -19.68 -68.88 l -67.81 -94.51 l -29.75 -89.24 l -22.43 -45.88 l -63.0 -59.0 l -73.5 -18.39 l -155.26 36.75 l -73.56 -13.39 l -35.43 -13.0 l -70.81 -36.25 l -42.57 -66.38 l -73.56 -10.88 l -42.94 -30.75 l -55.24 -71.62 l -45.31 -46.13 l -17.5 -30.62 l 28.56 -70.88 l 21.32 -111.62 l 15.44 -20.13 l 63.44 3.0 l 70.75 41.38 l 35.12 56.13 l 4.25 93.99 l 45.19 58.88 l 38.12 -7.25 l 86.88 -57.74 l 89.07 -11.88 l 40.88 -27.62 l 13.0 -38.0 l -12.25 -48.37 l -4.75 -38.12 l 20.62 -35.37 l 40.82 -17.38 l 40.5 13.0 l 27.57 43.5 l 47.37 99.5 l 47.93 38.5 l 162.0 64.89 l 88.5 49.13 l 14.94 33.12 l -31.26 88.62 l 22.63 30.62 l 60.37 64.13 l 101.69 -9.24 l 53.31 3.0 l 37.82 35.87 l 47.56 79.13 l 17.37 43.37 Z"/>      
          
      <path id="lakespy2_921"  d="M449385.17 -5252648.96 l -112.87 -160.88 l -4.62 -50.87 l 64.06 -68.01 l 2.88 -38.12 l -20.06 -30.62 l -96.5 1.75 l -22.62 -30.75 l -37.56 -56.25 l -20.13 -28.0 l -95.68 -92.38 l 3.0 -53.25 l 50.81 -2.12 l 35.24 38.37 l 22.87 -2.25 l 23.57 -75.99 l 18.12 -40.5 l 55.88 -2.12 l 7.5 12.88 l 4.62 53.37 l -0.56 66.0 l 40.13 53.63 l 78.12 74.38 l 35.24 33.37 l -8.88 142.12 l 73.06 71.62 l 27.31 71.38 l 2.0 56.0 l -69.0 52.62 l -55.94 4.62 Z"/>      
          
      <path id="lakespy2_928"  d="M450270.35 -5252219.3 l -2.31 -27.99 l 13.0 -35.38 l 68.76 -19.75 l 2.69 -12.75 l -20.19 -17.88 l -58.25 -15.75 l -12.38 -38.25 l 15.63 -48.13 l 36.7 -126.62 l 20.19 15.38 l 22.5 40.88 l 37.68 51.12 l 35.44 10.51 l 23.12 -25.25 l -24.49 -106.87 l 10.63 -48.25 l 66.13 -14.63 l 24.99 46.0 l -3.25 81.25 l 14.93 33.12 l 12.62 12.88 l 34.06 165.38 l 1.81 83.75 l -30.81 40.37 l -17.94 12.62 l -109.31 14.25 l -114.06 -31.5 l -47.88 -38.5 Z"/>      
          
      <path id="lakespy2_930"  d="M449076.73 -5252529.6 l 10.0 22.88 l -8.06 45.75 l -51.07 27.24 l -45.63 -5.37 l -65.87 -18.39 l 38.62 -60.62 l 22.94 -12.5 l 61.0 -4.5 l 38.06 5.5 Z"/>      
          
      <path id="lakespy2_931"  d="M446411.7 -5252195.08 l 74.83 -134.0 l 51.63 -96.12 l 25.62 -25.12 l 106.75 -1.62 l 52.93 41.13 l 38.01 10.5 l 71.44 -34.99 l 30.5 0.25 l 86.31 3.25 l 78.37 46.5 l 37.63 48.51 l 1.87 78.74 l -18.75 119.24 l -89.13 17.13 l -110.25 113.25 l -74.26 67.87 l -165.13 -1.5 l -93.62 -36.38 l -67.87 -81.75 l -35.0 -66.25 l -1.88 -68.63 Z"/>      
          
      <path id="lakespy2_932"  d="M448042.65 -5252213.76 l 17.5 30.62 l -0.44 50.75 l -41.44 93.62 l -23.63 86.13 l -13.13 48.24 l 14.74 50.88 l 45.38 38.5 l 73.56 15.88 l 96.62 -11.87 l 48.12 13.13 l 103.19 107.63 l 40.37 30.87 l 75.93 31.13 l 22.57 30.74 l 2.12 53.25 l -64.25 78.25 l -51.13 37.62 l -10.51 38.0 l 2.13 50.87 l -5.31 22.76 l -2.56 7.62 l -99.19 11.88 l -106.69 1.49 l -61.06 9.63 l -179.06 145.74 l -125.13 70.0 l -68.94 40.12 l -33.31 37.74 l -43.5 30.25 l -48.26 2.12 l -47.87 -43.62 l -9.88 -35.63 l 18.38 -63.37 l 48.75 -58.13 l 85.32 -164.37 l 35.5 0.37 l 35.43 15.51 l 88.88 5.88 l 38.31 -25.0 l 25.82 -45.49 l -14.5 -86.5 l -27.69 -28.25 l -50.81 2.12 l -43.44 27.5 l -74.0 37.49 l -89.0 14.5 l -78.75 1.75 l -101.37 -28.75 l -25.13 -30.75 l 0.44 -48.25 l 26.07 -78.49 l 35.88 -32.75 l 38.19 -12.37 l 221.19 -18.37 l 30.69 -25.12 l 74.75 -126.25 l 5.44 -38.12 l -30.31 -20.5 l -93.37 -69.51 l -35.06 -53.63 l -60.37 -69.13 l -80.88 -41.38 l -60.63 -43.62 l -87.87 -112.63 l -29.88 -71.38 l 10.7 -55.75 l 45.94 -27.49 l 56.0 -9.75 l 114.25 1.0 l 134.0 69.76 l 106.37 39.13 l 96.56 -1.74 l 50.81 -2.0 l 25.25 15.38 l 27.19 84.12 Z"/>      
          
      <path id="lakespy2_936"  d="M433981.14 -5251853.19 l -55.5 -49.13 l -42.87 -26.0 l -114.55 -205.5 l -2.32 -29.12 l 36.0 -44.13 l 35.69 -9.62 l 20.19 21.63 l 38.68 185.5 l 15.07 13.0 l 70.75 41.63 l 65.24 79.5 l 9.81 30.49 l -0.38 35.62 l -23.0 15.01 l -27.62 -28.25 l -25.18 -30.62 Z"/>      
          
      <path id="lakespy2_937"  d="M446319.95 -5252165.45 l -6.0 109.12 l -51.32 53.0 l -56.07 22.25 l -15.19 -5.12 l -22.12 -81.5 l 2.94 -48.25 l 25.75 -40.37 l 25.62 -22.63 l 66.19 -14.75 l 30.19 28.25 Z"/>      
          
      <path id="lakespy2_940"  d="M445793.93 -5251855.23 l 18.13 -38.0 l 18.44 -75.87 l -39.81 -91.87 l 7.82 -25.25 l 38.19 -7.25 l 35.43 13.0 l 53.06 36.0 l 32.69 38.38 l 4.68 38.12 l -20.81 55.63 l -79.69 108.5 l -17.94 20.12 l -31.44 106.38 l -33.18 22.63 l -43.13 -10.51 l -7.25 -38.24 l 15.94 -78.5 l 48.87 -73.24 Z"/>      
          
      <path id="lakespy2_946"  d="M441643.7 -5251493.65 l 45.94 -19.88 l 63.31 15.88 l 9.99 17.88 l -2.81 25.37 l -49.57 121.49 l -33.25 22.51 l -12.75 7.5 l -35.57 -0.38 l 16.32 -106.5 l -1.62 -83.87 Z"/>      
          
      <path id="lakespy2_950"  d="M446066.65 -5250801.1 l -37.93 -28.25 l -2.13 -50.87 l -75.25 -107.51 l -21.93 -104.25 l 24.32 -159.88 l 41.26 -68.25 l 66.5 -57.75 l 147.5 -19.12 l 60.87 13.25 l 22.94 -12.5 l 41.31 -70.75 l 25.44 -4.88 l 40.32 36.13 l -8.57 111.63 l -86.51 301.49 l 14.93 38.25 l 22.81 5.25 l 40.82 -19.87 l 71.5 -42.62 l 78.82 -6.88 l 45.49 23.26 l 30.07 46.0 l -8.06 53.25 l -23.13 30.25 l -285.19 76.23 l -119.82 49.74 l -45.75 2.13 l -60.63 -33.5 Z"/>      
          
      <path id="lakespy2_952"  d="M450574.98 -5250471.55 l -49.13 96.12 l -56.07 19.76 l -28.44 53.12 l 3.74 147.25 l 14.75 61.0 l -35.69 15.13 l -165.0 -16.89 l -25.44 -0.12 l -20.69 45.5 l -3.94 157.37 l -28.56 65.88 l -69.56 113.63 l -127.25 29.36 l -63.31 -25.99 l -25.37 2.37 l -0.38 40.62 l 9.57 66.13 l -63.69 19.75 l -68.69 9.63 l -25.06 -30.75 l 0.45 -53.38 l 10.5 -37.99 l 61.19 -27.37 l 23.13 -30.25 l 0.38 -40.62 l -30.25 -25.75 l -121.75 -18.75 l -93.94 -8.51 l -37.75 -35.87 l -51.99 -152.88 l 0.44 -50.88 l 48.82 -63.0 l 138.06 -100.37 l 130.76 -133.49 l 100.19 -131.24 l 41.5 -93.63 l -6.93 -78.74 l -42.75 -48.63 l -63.44 -8.25 l -48.06 -23.26 l -139.13 -64.76 l -32.75 -28.25 l -65.94 -13.25 l -145.01 21.62 l -103.87 -31.37 l -7.31 -30.62 l 23.25 -45.5 l 89.63 -80.5 l 41.26 -70.75 l 13.69 -114.13 l -9.43 -78.87 l 28.31 -45.5 l 76.32 -9.49 l 48.06 23.38 l 155.26 -29.12 l 71.0 13.26 l 42.94 30.87 l 7.37 25.5 l -20.5 17.62 l -86.44 14.5 l -15.5 20.13 l 4.56 56.0 l 24.87 63.63 l 45.56 18.26 l 129.88 -34.49 l 48.18 13.25 l 45.38 38.5 l 129.69 -16.62 l 70.81 31.12 l 32.5 58.75 l 14.56 81.38 l 93.49 54.25 l 50.81 0.38 l 45.94 -30.0 l 40.63 2.88 l 88.44 54.13 l 72.87 89.5 l 9.81 38.25 l -20.44 15.0 l -18.07 32.87 l -39.19 121.62 l -58.82 45.12 l -13.0 35.5 Z"/>      
          
      <path id="lakespy2_957"  d="M446241.98 -5249664.1 l -9.87 -33.12 l 3.31 -88.88 l 36.94 -152.12 l 54.06 -88.37 l 161.19 -135.74 l 61.25 -32.5 l 63.38 13.26 l 63.49 3.13 l 50.69 10.62 l 66.19 -14.75 l 114.37 -9.12 l 206.19 -48.99 l 116.49 36.63 l 190.81 -28.74 l 150.44 -67.25 l 229.13 -56.49 l 56.19 -32.5 l 61.5 -57.87 l 15.56 -37.87 l 42.14 -164.88 l 59.31 -101.12 l 69.06 -57.88 l 89.0 -6.74 l 55.63 23.38 l 55.94 -2.13 l 66.37 -39.99 l 84.13 -29.74 l 46.5 -93.63 l 33.13 -12.37 l 33.12 -7.38 l 40.31 30.88 l 121.88 6.13 l 154.5 47.13 l 95.81 82.12 l 4.81 30.5 l -3.25 76.24 l -37.01 164.76 l 11.68 117.0 l 19.68 73.75 l 39.38 140.12 l 55.24 71.62 l 47.44 96.88 l -1.7 190.5 l 12.31 43.25 l 149.06 92.75 l 57.75 66.63 l 35.05 53.63 l -21.69 159.88 l -46.13 45.25 l -155.38 44.36 l -30.63 20.01 l 19.63 78.99 l -11.0 91.38 l -59.51 121.36 l -53.75 50.25 l -10.82 71.12 l -30.81 42.87 l -33.12 12.38 l 27.68 30.75 l 1.43 126.99 l -13.51 86.25 l -20.81 60.75 l -138.01 98.0 l -201.75 122.61 l -159.39 214.49 l -119.94 59.99 l -76.12 -5.75 l -222.31 -144.38 l -145.93 -158.76 l 0.5 -50.88 l 43.63 -45.12 l 5.56 -55.88 l -34.81 -84.12 l -67.93 -74.25 l -136.44 -80.0 l -258.69 -42.88 l -155.06 19.0 l -102.19 59.99 l -2.81 27.87 l 45.31 51.26 l 12.37 35.62 l -36.06 53.12 l -25.37 -0.25 l -91.25 -18.63 l -63.0 -59.0 l -135.49 -191.63 l -62.31 -130.13 l -141.3 -392.5 l -40.07 -66.38 l -63.18 -41.13 l -60.75 -18.38 l -76.06 -23.51 l -95.75 -89.75 l -17.56 -25.62 l -27.81 -15.38 l -40.25 -41.0 Z"/>      
          
      <path id="lakespy2_983"  d="M450399.42 -5249294.57 l 53.88 -60.5 l 89.07 -19.5 l 76.19 0.63 l 27.56 43.5 l 61.99 168.12 l -5.57 53.38 l -56.19 34.99 l -18.18 48.13 l -15.95 76.12 l -60.93 2.0 l -121.44 -59.51 l -42.75 -48.63 l -24.56 -94.25 l 0.82 -88.87 l 36.06 -55.63 Z"/>      
          
      <path id="lakespy2_988"  d="M446484.34 -5248925.35 l 40.37 33.37 l 6.24 149.88 l -20.62 32.87 l -56.0 14.63 l -30.44 -7.88 l -60.75 -20.88 l -77.94 -92.13 l -58.18 -36.13 l 5.5 -37.99 l 28.32 -43.0 l -17.62 -20.38 l -53.25 -8.13 l -15.06 -20.5 l 51.44 -73.12 l 38.06 2.87 l 88.31 66.89 l 63.31 23.38 l 68.31 36.25 Z"/>      
          
      <path id="lakespy2_1017"  d="M445889.5 -5246590.51 l 22.81 2.75 l 76.25 -4.37 l 48.63 -42.75 l 51.44 -70.75 l 71.63 -55.25 l 48.07 20.76 l 2.19 40.74 l -21.13 88.63 l 17.37 48.5 l 14.88 38.24 l 14.93 38.25 l 9.57 66.13 l -12.88 20.13 l -63.56 4.5 l -45.82 12.37 l -41.38 83.38 l -33.44 45.49 l -66.32 35.0 l -13.12 43.0 l -25.63 30.24 l -7.82 20.26 l -20.5 17.62 l -89.0 9.38 l -101.44 -16.14 l -81.06 -26.12 l -45.5 -25.75 l -32.5 -58.75 l 13.13 -45.62 l 23.0 -15.01 l 2.62 -12.75 l -29.93 -58.63 l -2.0 -63.5 l 20.75 -48.12 l 23.13 -30.25 l 89.38 -55.12 l 183.25 -36.49 Z"/>      
          
      <path id="lakespy2_1020"  d="M444439.61 -5246364.57 l 9.57 66.13 l 12.12 68.75 l 17.62 15.38 l 76.25 -4.37 l 95.94 66.88 l 76.0 21.01 l 63.62 -9.63 l 151.69 77.5 l 25.13 30.75 l -3.07 63.5 l -38.5 40.25 l -68.81 24.74 l -139.75 6.37 l -20.19 -12.87 l -35.69 12.5 l -56.25 45.12 l -193.56 54.24 l -81.26 -3.25 l -63.56 12.12 l -63.63 12.13 l -88.87 -8.38 l -42.69 -51.25 l -48.19 -13.13 l -40.62 2.24 l -99.51 47.38 l -63.56 4.49 l -63.87 42.62 l -126.94 -6.25 l -88.69 -23.63 l -29.93 -58.63 l 3.44 -106.75 l -39.5 -127.25 l -52.12 -137.63 l -2.19 -40.75 l 49.31 -121.49 l 241.82 -53.74 l 154.94 1.38 l 99.57 -55.0 l 40.93 -32.62 l 127.5 -59.87 l 101.88 -32.12 l 76.12 10.88 l 73.19 56.51 l 44.99 79.12 l 9.31 96.63 Z"/>      
          
      <path id="lakespy2_1044"  d="M445668.12 -5244829.66 l 83.5 36.38 l 20.13 23.01 l -18.07 30.37 l 128.94 74.75 l 25.06 33.24 l -10.56 45.63 l -20.43 17.63 l -104.19 6.62 l -20.57 25.24 l 17.31 48.38 l 30.19 35.87 l 58.13 33.5 l 24.94 53.63 l 12.37 35.62 l 83.25 69.38 l 19.93 40.75 l -41.25 70.76 l -35.88 32.74 l -66.06 2.0 l -35.44 -13.13 l -35.43 -10.38 l -172.57 -21.89 l -73.31 -41.25 l -95.56 -110.13 l -120.81 -120.37 l -25.06 -38.38 l 5.5 -48.25 l 30.87 -45.37 l 50.81 -4.62 l 27.76 25.62 l 40.56 5.38 l 84.06 -24.62 l 66.19 -14.63 l -12.38 -40.75 l -93.44 -59.25 l -7.25 -43.25 l 59.5 -123.99 l 50.81 -2.0 l 68.43 15.75 Z"/>      
          
      <path id="lakespy2_1048"  d="M444212.61 -5244535.22 l 30.38 10.5 l 27.56 46.0 l 47.81 46.13 l -2.69 20.25 l 7.44 17.88 l -10.44 30.37 l -50.94 19.88 l -40.44 -28.25 l -12.44 -30.62 l -55.37 -53.88 l -12.44 -33.12 l 17.99 -20.13 l 53.57 -24.99 Z"/>      
          
      <path id="lakespy2_1054"  d="M450103.42 -5244284.86 l 167.0 75.12 l 20.06 30.62 l 4.44 71.12 l -7.94 33.0 l -79.13 47.62 l -46.5 83.37 l -18.31 63.38 l 22.63 28.12 l 12.12 63.63 l -15.69 53.13 l -40.94 32.62 l -71.37 29.86 l -40.69 2.25 l -38.37 32.62 l -119.26 -13.75 l -50.81 -3.01 l -27.68 -28.12 l 0.37 -38.12 l 35.88 -37.75 l 41.07 -45.37 l 5.88 -91.37 l -25.19 -25.63 l -39.56 -122.24 l -19.81 -61.26 l 31.25 -83.49 l -14.56 -78.87 l 2.81 -30.5 l 48.63 -37.62 l 111.87 -16.75 l 50.75 5.5 l 101.06 61.89 Z"/>      
          
      <path id="lakespy2_1062"  d="M444898.83 -5243431.82 l -12.38 -35.63 l -2.06 -55.87 l 12.88 -17.63 l -27.31 -74.0 l 18.12 -35.37 l 112.44 -77.74 l 211.19 -41.24 l 126.93 3.63 l 227.87 85.76 l 105.94 87.37 l 34.93 66.38 l 4.56 58.38 l -23.5 75.99 l 9.19 109.38 l -28.32 42.87 l -53.69 40.25 l -129.69 11.5 l -116.43 -44.26 l -177.44 -37.13 l -227.81 -93.38 l -53.12 -28.5 l -12.31 -40.74 Z"/>      
          
      <path id="lakespy2_1081"  d="M446189.72 -5242053.78 l 5.62 -66.01 l 31.57 -116.5 l 21.07 -88.75 l -2.06 -50.87 l -26.81 -127.25 l -29.81 -81.5 l 0.12 -12.75 l 18.07 -27.74 l 241.31 -5.49 l 139.75 -1.25 l 114.25 3.51 l 60.75 23.38 l 42.75 48.62 l 80.62 77.0 l 44.69 114.63 l 106.06 74.63 l 110.93 95.0 l 52.87 53.75 l 151.63 82.63 l 91.0 54.13 l 17.5 28.12 l 4.49 68.63 l -3.13 63.51 l -26.69 147.12 l -41.12 60.5 l -71.44 34.99 l -313.06 70.87 l -66.13 7.0 l -55.69 -18.26 l -106.31 -46.62 l -118.81 -67.14 l -113.81 -49.25 l -141.12 -133.38 l -75.94 -28.5 l -65.81 -23.51 l -42.68 -58.75 l -34.62 -104.5 Z"/>      
          
      <path id="lakespy2_1093"  d="M436442.4 -5241648.56 l 38.06 3.01 l 20.25 10.37 l 19.94 35.75 l -10.44 25.37 l -12.94 25.25 l -35.76 17.37 l -58.31 -10.75 l -12.38 -30.75 l 0.44 -43.12 l 18.0 -22.76 l 33.13 -9.75 Z"/>      
          
      <path id="lakespy2_1095"  d="M442268.72 -5240589.32 l 76.0 16.0 l 88.88 6.01 l 30.19 25.49 l 44.88 84.25 l 36.87 114.51 l 42.31 84.37 l 92.88 105.38 l 54.43 140.5 l -20.63 32.88 l -40.81 12.12 l -18.5 76.12 l 13.5 167.87 l -0.82 78.87 l -67.07 100.87 l 7.12 51.01 l 57.81 52.0 l 4.69 38.25 l -39.07 90.99 l -76.88 62.38 l -109.88 67.12 l -161.69 155.62 l -20.5 17.63 l -66.26 22.13 l -76.75 44.87 l -86.63 24.49 l -347.82 222.48 l -71.5 34.74 l -120.0 59.75 l 0.12 -2.78 l 8.13 -53.09 l 0.03 -0.47 l 0.01 -0.04 l 8.4 -83.12 l 1.16 -109.39 l 21.22 -91.11 l 52.56 76.75 l 25.32 7.88 l 23.12 -24.99 l 24.88 -185.13 l -4.56 -53.37 l 11.01 -76.25 l -14.44 -81.49 l -37.75 -33.38 l -60.81 -15.75 l -42.37 4.53 l -0.73 -2.66 l -15.19 -19.75 l -2.44 -3.19 l -50.4 -33.63 l -47.91 -30.93 l -0.4 -0.09 l -4.25 -50.54 l -17.63 -20.63 l -152.44 3.5 l -104.06 -3.76 l -77.81 -87.12 l -4.69 -38.13 l 31.57 -101.12 l -14.43 -79.0 l -27.62 -28.12 l -76.13 -11.01 l -30.25 -23.25 l -50.81 2.0 l -18.0 20.12 l -11.01 83.63 l -7.81 20.25 l -1.55 -0.61 l -0.98 -2.02 l -63.21 -25.99 l -35.99 -8.89 l -7.03 -2.25 l -4.48 1.65 l -22.45 5.8 l 22.26 -55.19 l -2.13 -38.13 l -35.38 -18.13 l -117.19 26.75 l -101.57 -3.63 l -48.0 -23.39 l -39.75 -86.62 l -53.31 -5.63 l -43.88 65.5 l -38.19 9.75 l -35.62 7.25 l -116.76 -8.75 l -101.31 -29.0 l -40.31 -33.5 l -9.88 -23.01 l 49.13 -88.37 l 23.31 -37.87 l -4.56 -53.38 l -19.93 -33.24 l -76.44 17.0 l -124.94 46.99 l -50.94 12.13 l -50.75 -0.51 l -30.44 -7.87 l -55.63 -26.0 l -42.94 -23.38 l -87.24 -158.38 l -4.68 -38.13 l 41.56 -85.87 l -2.25 -25.49 l -27.81 -18.01 l -124.0 -39.5 l -45.25 -48.63 l -67.81 -74.37 l -45.5 -20.88 l -233.37 -32.88 l -101.06 -41.88 l -111.82 1.37 l -15.06 -17.88 l -29.69 -76.5 l 3.25 -63.5 l 38.44 -32.62 l 128.63 -158.75 l 8.06 -37.99 l -27.31 -61.26 l 41.19 -52.87 l 99.88 -77.74 l 116.87 -1.25 l 126.44 47.13 l 70.63 43.88 l 48.12 15.75 l 95.87 64.51 l 77.56 110.13 l 75.5 69.38 l 100.5 105.13 l 98.0 102.63 l 85.75 56.76 l 129.37 16.63 l 124.06 42.01 l 88.44 46.62 l 116.94 -11.49 l 252.0 -48.24 l 142.44 -11.12 l 170.69 -51.62 l 213.63 -23.12 l 108.87 29.0 l 140.25 -46.75 l 53.25 5.63 l 9.94 25.5 l 2.0 53.37 l -46.19 42.75 l -94.19 16.75 l -97.38 85.37 l -56.32 37.49 l -58.93 50.13 l 2.31 20.38 l 30.12 38.49 l 55.69 18.26 l 20.19 13.0 l 35.43 13.01 l 20.19 7.88 l 2.19 37.99 l 7.5 10.26 l 25.44 -2.25 l 56.31 -42.63 l 22.94 -7.37 l 75.56 61.63 l 160.25 -18.75 l 214.7 -127.36 l 151.13 -120.24 l 145.07 -26.36 l 165.19 -8.62 Z"/>      
          
      <path id="lakespy2_1113"  d="M440788.64 -5238729.89 l 1.0 -1.86 l 267.66 65.62 l 1.45 0.66 l -1.54 1.84 l -268.57 -66.26 Z"/>      
          
      <path id="lakespy2_1114"  d="M437866.58 -5239370.14 l -23.38 45.5 l -25.69 32.75 l -66.38 29.86 l -33.0 -2.87 l -7.18 -40.75 l 18.44 -63.38 l 44.13 -90.87 l 28.31 -32.75 l 25.37 0.25 l 30.44 5.38 l 9.87 28.0 l -0.94 88.87 Z"/>      
          
      <path id="lakespy2_1151"  d="M442066.6 -5235317.49 l 20.81 -42.87 l 30.69 -24.87 l 54.32 -90.75 l 18.75 -101.5 l -47.74 -43.62 l -38.06 -8.0 l -117.0 16.49 l -71.63 50.0 l -86.57 19.25 l -63.44 -8.38 l -12.44 -25.49 l 23.19 -32.75 l 66.5 -44.87 l 87.0 -67.63 l 10.75 -56.0 l -87.75 -113.0 l -19.56 -81.75 l 10.31 -22.88 l 106.75 -6.75 l 111.56 21.51 l 118.56 77.75 l 148.81 108.51 l 72.81 87.5 l 32.81 23.26 l 76.19 -1.62 l 15.63 -40.5 l 35.38 -233.75 l 49.13 -80.99 l 66.5 -42.12 l 73.94 -27.0 l 51.0 -14.12 l 61.31 -26.49 l 101.81 8.5 l 240.56 122.51 l 50.75 16.25 l 37.94 20.51 l 159.24 87.75 l 65.5 59.01 l 120.75 133.12 l 114.93 217.0 l 82.37 165.75 l -49.5 141.87 l -34.13 124.12 l -77.88 187.37 l -51.69 98.5 l -51.13 37.74 l -68.81 24.75 l -99.32 29.61 l -50.94 19.88 l -78.87 9.38 l -32.88 -12.88 l -78.68 -18.14 l -91.19 7.25 l -99.13 61.38 l -91.37 12.37 l -35.19 -20.26 l -75.94 -15.25 l -25.88 42.62 l -38.44 32.75 l -65.88 -0.13 l -37.75 -30.25 l -65.31 -48.25 l -50.88 7.37 l -203.32 19.12 l -17.56 -20.5 l 13.0 -22.76 l 66.69 -60.37 l 33.63 -55.63 l 10.69 -53.12 l -24.75 -56.13 l -100.44 -104.88 l -35.12 -35.87 l -61.87 -150.38 l -92.94 -102.38 l -9.62 -45.88 Z"/>      
          
      <path id="lakespy2_1172"  d="M447292.56 -5234355.17 l 134.0 74.88 l 37.82 33.37 l 40.06 63.75 l 16.43 152.63 l 70.12 109.88 l 15.0 30.5 l 37.62 56.25 l 93.44 59.26 l 35.19 43.5 l 12.25 53.5 l -20.69 40.37 l -50.81 -0.38 l -68.24 -38.75 l -88.25 -71.87 l -35.43 -15.5 l -32.69 -41.0 l -19.94 -40.75 l -37.24 -99.5 l -37.94 -13.01 l -80.56 -82.0 l -156.06 -163.88 l -42.43 -81.75 l 0.31 -38.0 l 33.5 -55.62 l 86.31 5.88 l 58.24 18.25 Z"/>      
          
      <path id="lakespy2_1173"  d="M449103.56 -5234339.1 l 104.25 -16.87 l 71.12 3.13 l 32.82 20.63 l 17.24 58.63 l -35.94 45.37 l -15.5 30.37 l -22.94 9.88 l -23.12 30.24 l -25.44 -0.12 l -108.68 -62.01 l -88.13 -87.13 l 2.88 -35.49 l 22.94 -12.51 l 68.5 15.88 Z"/>      
          
      <path id="lakespy2_1175"  d="M450931.6 -5233964.78 l 60.68 31.0 l 113.43 100.01 l 30.07 48.62 l 4.49 63.5 l -38.76 73.37 l -66.18 17.13 l -104.31 24.49 l -50.75 -8.13 l -42.81 -41.0 l -7.44 -20.38 l -27.81 -18.0 l -24.62 -89.13 l 0.45 -50.75 l -47.88 -43.62 l -22.69 -15.51 l -7.18 -48.25 l 13.06 -40.62 l 45.94 -24.99 l 25.37 2.87 l 55.56 33.5 l 63.56 -4.5 l 27.81 10.38 Z"/>      
          
      <path id="lakespy2_1177"  d="M445797.81 -5233928.98 l 50.56 25.87 l 103.81 33.88 l 101.5 13.63 l 47.93 38.5 l 80.43 94.75 l 14.56 78.87 l -23.76 101.38 l -146.06 140.99 l -49.13 101.13 l -36.56 111.5 l -10.63 40.62 l -3.82 86.37 l -19.62 -35.75 l -27.62 -15.5 l -19.13 -28.25 l -81.74 -49.0 l -50.31 -56.25 l -55.13 -86.88 l -83.0 -92.25 l -14.81 -45.75 l -22.12 -84.12 l -4.25 -91.38 l 62.26 -151.87 l 28.37 -48.0 l 35.76 -22.63 l 12.94 -27.74 l 23.25 -40.5 l 27.93 2.75 l 58.38 5.63 Z"/>      
          
      <path id="lakespy2_1193"  d="M446910.74 -5232371.58 l 65.62 13.38 l 98.62 3.38 l 132.13 -47.12 l 120.13 -82.74 l 76.5 -29.74 l 62.32 -154.5 l 41.87 -68.13 l 92.69 -133.99 l 45.93 180.87 l -2.88 40.62 l -20.81 53.13 l -94.63 77.99 l -107.31 72.61 l -68.81 22.26 l -71.56 47.74 l -97.51 110.88 l -35.62 30.12 l -63.19 14.75 l -70.56 -26.13 l -102.93 -125.37 Z"/>      
          
      <path id="lakespy2_1196"  d="M446656.75 -5232594.71 l -25.82 53.13 l -22.94 -13.01 l -76.24 9.5 l -132.07 6.5 l -145.56 72.36 l -168.25 51.87 l -104.63 32.12 l -257.25 71.36 l -76.38 29.74 l -53.81 88.49 l -20.95 116.63 l -2.88 55.88 l 7.0 71.12 l 7.31 38.25 l 108.37 97.5 l 27.62 38.25 l -0.37 38.12 l -61.25 34.99 l -124.63 19.25 l -60.81 -18.25 l -35.38 -23.26 l -37.68 -43.5 l -171.3 -169.12 l -151.37 -133.51 l -73.5 -18.38 l -63.56 4.5 l -109.76 77.74 l -92.19 83.12 l -41.12 45.25 l -99.51 52.37 l -193.44 46.62 l -215.87 3.24 l -40.62 -5.38 l -85.56 -90.12 l -19.75 -66.26 l 18.19 -43.25 l -20.0 -46.12 l -7.56 -7.63 l -38.12 4.63 l -74.07 55.37 l -51.32 53.0 l -61.25 42.87 l -100.07 121.61 l -53.63 37.88 l -81.43 20.0 l -68.82 35.37 l -99.13 97.49 l -45.69 41.12 l -101.68 53.62 l -43.32 9.63 l -38.31 19.88 l -35.5 -8.01 l 74.69 -98.24 l 35.75 -37.75 l 63.82 -80.99 l 81.19 -38.75 l 91.44 -77.61 l 135.01 -58.0 l 173.5 -103.62 l 28.44 -53.37 l -9.87 -38.5 l -60.37 -69.13 l 5.75 -81.5 l 20.81 -50.62 l 28.0 -7.38 l 96.12 46.75 l 159.18 90.88 l 24.99 46.0 l 22.25 79.25 l 37.44 71.62 l 78.3 54.25 l 170.19 -3.61 l 142.57 -41.75 l 176.19 -100.12 l 115.07 -97.99 l 104.63 -65.12 l 104.07 0.87 l 73.31 48.88 l 191.75 174.5 l 161.24 156.26 l 53.0 36.12 l 116.62 28.88 l 30.56 -12.38 l -12.31 -43.25 l -126.37 -72.24 l -40.13 -56.26 l 52.58 -261.11 l 23.25 -76.0 l 38.5 -65.75 l 38.25 -27.62 l 170.69 -59.49 l 188.94 -76.99 l 91.5 -32.24 l 379.88 -93.11 l 91.69 -34.74 l 93.75 36.37 Z"/>      
          
      <path id="lakespy2_1197"  d="M451510.04 -5232503.65 l 45.31 69.01 l 7.25 58.5 l -23.5 80.99 l -33.45 45.5 l -112.37 57.37 l -104.38 1.62 l -48.31 20.0 l -50.69 -15.75 l -37.87 -33.37 l -22.69 -30.63 l 7.69 -22.87 l 5.57 -129.5 l -14.88 -71.24 l 10.82 -78.62 l 31.0 -45.38 l 71.69 -24.74 l 84.18 31.13 l 45.5 23.25 l 58.5 -17.25 l 32.93 13.0 l 47.69 69.01 Z"/>      
          
      <path id="lakespy2_1199"  d="M447256.8 -5232274.44 l 25.81 -40.5 l 196.5 -107.49 l 25.63 -27.62 l 91.94 -52.62 l 71.69 -62.88 l -2.88 35.62 l -8.06 50.75 l -20.81 58.13 l -107.56 95.62 l -109.63 47.37 l -162.62 3.62 Z"/>      
          
      <path id="lakespy2_1201"  d="M446630.93 -5232541.58 l 48.12 8.0 l 93.25 71.87 l 42.5 69.01 l 67.81 79.37 l 47.87 30.87 l 27.5 46.0 l 60.5 31.0 l 58.06 28.37 l -123.87 -6.13 l -138.94 -57.13 l -50.31 -46.12 l -103.06 -127.88 l -37.87 -56.25 l 8.44 -70.99 Z"/>      
          
      <path id="lakespy2_1204"  d="M449052.03 -5231976.88 l -99.25 14.5 l -228.5 -12.13 l -139.5 -21.51 l -274.31 -7.52 l -139.68 -6.38 l -33.25 -81.49 l -2.75 -78.75 l 33.82 -88.62 l 28.12 -25.12 l 101.95 -39.74 l 114.56 -26.99 l 89.18 -29.62 l 160.19 -21.5 l 369.43 38.76 l 47.94 20.76 l 22.62 23.13 l 40.0 104.5 l 2.24 61.0 l -28.69 106.25 l -18.12 35.5 l -46.0 34.99 Z"/>      
          
      <path id="lakespy2_1209"  d="M446512.94 -5231188.86 l -48.56 40.24 l -99.25 9.25 l -7.69 7.63 l -7.93 37.99 l -20.38 7.38 l -7.31 -33.0 l -65.75 -38.75 l -57.87 -61.38 l -32.37 -76.49 l -21.5 -155.13 l -29.43 -127.37 l -24.56 -104.25 l 68.38 28.5 l 88.93 -6.88 l 99.44 -44.87 l 135.32 -79.99 l 148.31 -123.24 l 61.19 -22.37 l 103.94 21.26 l 136.68 52.0 l 207.94 37.38 l 37.81 30.75 l 49.93 104.63 l 34.63 104.5 l -3.13 68.5 l -44.0 103.75 l -35.62 9.88 l -101.5 -13.64 l -147.06 -19.01 l -142.38 21.5 l -160.63 77.37 l -79.5 80.74 l -36.07 63.13 Z"/>      
          
      <path id="lakespy2_1225"  d="M449736.13 -5229773.65 l -0.25 30.5 l 17.31 51.0 l 12.31 43.25 l -66.13 12.13 l -33.38 37.74 l -33.31 35.25 l -71.82 73.11 l -56.06 24.87 l -60.75 -23.38 l -30.88 45.37 l -38.12 2.25 l -73.44 -31.12 l -105.87 -89.88 l -40.74 12.38 l -27.88 -5.25 l -65.24 -84.5 l -53.38 4.62 l -35.43 -15.5 l -70.5 -71.75 l -39.68 -109.63 l -17.56 -23.0 l -31.93 -122.12 l -1.68 -96.63 l 49.69 -151.99 l 33.63 -65.76 l 107.5 -85.36 l 48.5 -19.88 l 297.18 -2.49 l 32.88 10.5 l 50.5 33.5 l 91.31 13.51 l 12.5 20.38 l 2.06 50.87 l -49.63 141.75 l 52.63 86.87 l 20.0 33.12 l -3.26 78.75 l -13.31 70.99 l 12.56 20.38 l 40.88 -30.12 l 25.56 -20.0 l 124.12 39.13 l 7.31 27.99 l -18.19 48.12 Z"/>      
          
      <path id="lakespy2_1232"  d="M441715.74 -5229493.82 l 191.19 -64.12 l 4.49 58.5 l 30.38 10.51 l 2.24 27.99 l -28.31 32.62 l -130.2 62.25 l -55.93 7.0 l -25.25 -15.5 l -12.31 -35.75 l 23.06 -22.63 l 7.94 -27.74 l -7.31 -33.13 Z"/>      
          
      <path id="lakespy2_1233"  d="M441369.86 -5229449.2 l 224.07 -50.99 l 32.75 23.26 l -20.75 45.5 l 14.69 48.37 l 27.49 46.0 l 4.75 28.0 l 2.37 15.25 l -18.75 96.37 l -119.26 -14.0 l -44.93 -76.62 l -12.31 -38.25 l -48.06 -15.76 l -15.75 48.13 l -10.7 53.25 l -7.75 7.5 l -126.93 -3.88 l -27.69 -25.62 l -9.81 -35.75 l 28.75 -75.87 l 43.63 -42.75 l 63.68 -17.12 l 20.5 -15.01 Z"/>      
     
      </g>
      
   </svg>

